<?xml version="1.0" standalone="no"?>
<!DOCTYPE svg PUBLIC "-//W3C//DTD SVG 20010904//EN"
 "http://www.w3.org/TR/2001/REC-SVG-20010904/DTD/svg10.dtd">
<svg version="1.0" xmlns="http://www.w3.org/2000/svg"
 width="512.000000pt" height="512.000000pt" viewBox="0 0 512.000000 512.000000"
 preserveAspectRatio="xMidYMid meet">
<metadata>
Created by potrace 1.14, written by Peter Selinger 2001-2017
</metadata>
<g transform="translate(0.000000,512.000000) scale(0.100000,-0.100000)"
fill="#000000" stroke="none">
<path d="M1192 4971 c-58 -20 -125 -78 -140 -120 -5 -15 -9 -80 -9 -146 l-1
-120 -278 -5 c-175 -4 -291 -10 -312 -17 -87 -31 -175 -132 -196 -225 -9 -40
-12 -527 -11 -1993 1 -1067 5 -1956 9 -1975 18 -82 84 -163 171 -209 l50 -26
2085 0 2085 0 51 27 c86 45 140 112 170 208 13 43 12 3907 -1 3966 -22 99 -98
187 -193 223 -50 19 -75 21 -323 21 l-269 0 -1 63 c0 34 -1 85 0 112 0 75 -15
117 -55 158 -55 54 -131 80 -224 75 -85 -5 -151 -30 -194 -73 -47 -47 -56 -83
-56 -215 l0 -120 -363 0 -362 0 -1 129 c-1 115 -4 133 -24 165 -82 134 -323
156 -448 42 -46 -41 -55 -72 -56 -206 l-1 -125 -362 -3 -363 -2 0 122 c0 102
-3 128 -20 164 -50 103 -219 153 -358 105z m197 -166 c12 -12 16 -39 16 -120
l1 -105 -98 0 c-71 0 -98 3 -99 13 -4 42 -4 184 0 196 12 39 145 51 180 16z
m1251 5 c18 -10 20 -22 20 -120 l0 -110 -100 0 -101 0 3 113 3 112 35 12 c37
14 108 10 140 -7z m1259 -4 c10 -10 14 -39 14 -98 -1 -145 12 -129 -100 -126
l-98 3 -1 102 c-1 111 5 126 56 136 40 8 113 -2 129 -17z"/>
</g>
</svg>
